# File created by Blade
# Date/Time:  Thu Jan 22 16:25:57 2015
#---------------------------------------------------------
:version 1.10
:name HOM
:units
  mass 1.0
  length 1.000000
  angle deg
:documentation
     Acclaim Skeleton File
:root
   axis xyz
   order TX TY TZ RX RY RZ
   position 0.000000 0.000000 0.000000
   orientation 0 0 0
:bonedata
   begin
      id 1
      name RightUpLeg_dum
      direction -1.000000 0.000000 0.000000
      length 3.766986
      axis 0.0 0.0 0.0 xyz
   end
   begin
      id 2
      name LeftUpLeg_dum
      direction 1.000000 0.000000 0.000000
      length 3.766986
      axis 0.0 0.0 0.0 xyz
   end
   begin
      id 3
      name Spine_dum
      direction 0.000000 1.000000 0.000000
      length 7.779697
      axis 0.0 0.0 0.0 xyz
   end
   begin
      id 4
      name RightUpLeg
      direction 0.000000 -1.000000 0.000000
      length 18.017682
      axis 0.0 0.0 0.0 xyz
      dof rx ry rz
   end
   begin
      id 5
      name RightLeg
      direction 0.000000 -1.000000 0.000000
      length 16.881075
      axis 0.0 0.0 0.0 xyz
      dof rx ry rz
   end
   begin
      id 6
      name RightFoot
      direction 0.000000 -0.258819 0.965926
      length 5.770812
      axis 15.0 0.0 0.0 xyz
      dof rx ry rz
   end
   begin
      id 7
      name RightToeBase
      direction 0.000000 0.000000 1.000000
      length 2.952750
      axis 0.0 0.0 0.0 xyz
      dof rx ry rz
   end
   begin
      id 8
      name LeftUpLeg
      direction 0.000000 -1.000000 0.000000
      length 18.017682
      axis 0.0 0.0 0.0 xyz
      dof rx ry rz
   end
   begin
      id 9
      name LeftLeg
      direction 0.000000 -1.000000 0.000000
      length 16.881075
      axis 0.0 0.0 0.0 xyz
      dof rx ry rz
   end
   begin
      id 10
      name LeftFoot
      direction 0.000000 -0.258819 0.965926
      length 5.770812
      axis 15.0 0.0 0.0 xyz
      dof rx ry rz
   end
   begin
      id 11
      name LeftToeBase
      direction 0.000000 0.000000 1.000000
      length 2.952750
      axis 0.0 0.0 0.0 xyz
      dof rx ry rz
   end
   begin
      id 12
      name Spine
      direction 0.000000 1.000000 0.000000
      length 0.000000
      axis 0.0 0.0 0.0 xyz
      dof rx ry rz
   end
   begin
      id 13
      name Spine_dum1
      direction 0.000000 1.000000 0.000000
      length 10.941760
      axis 0.0 0.0 0.0 xyz
   end
   begin
      id 14
      name Spine_dum2
      direction 0.000000 1.000000 0.000000
      length 10.941760
      axis 0.0 0.0 0.0 xyz
   end
   begin
      id 15
      name Spine_dum3
      direction 0.000000 1.000000 0.000000
      length 16.646042
      axis 0.0 0.0 0.0 xyz
   end
   begin
      id 16
      name RightShoulder
      direction -1.000000 0.000000 0.000000
      length 7.708937
      axis 0.0 0.0 90.0 xyz
      dof rx ry rz
   end
   begin
      id 17
      name RightArm
      direction -1.000000 0.000000 0.000000
      length 11.521345
      axis 0.0 0.0 90.0 xyz
      dof rx ry rz
   end
   begin
      id 18
      name RightForeArm
      direction -1.000000 0.000000 0.000000
      length 10.175898
      axis 0.0 0.0 90.0 xyz
      dof ry rz rx
   end
   begin
      id 19
      name RightHand
      direction -1.000000 0.000000 0.000000
      length 0.000000
      axis 0.0 0.0 90.0 xyz
      dof rx ry rz
   end
   begin
      id 20
      name RightHand_dum1
      direction -1.000000 0.000000 0.000000
      length 3.937000
      axis 0.0 0.0 90.0 xyz
   end
   begin
      id 21
      name RightHand_dum2
      direction 0.000000 0.000000 0.000000
      length 0.000000
      axis 0.0 0.0 90.0 xyz
   end
   begin
      id 22
      name RightHandThumb1
      direction 0.000000 0.000000 1.000000
      length 3.937000
      axis 0.0 0.0 90.0 xyz
      dof rx rz ry
   end
   begin
      id 23
      name LeftShoulder
      direction 1.000000 0.000000 0.000000
      length 7.708937
      axis 0.0 0.0 -90.0 xyz
      dof rx ry rz
   end
   begin
      id 24
      name LeftArm
      direction 1.000000 0.000000 0.000000
      length 11.521345
      axis 0.0 0.0 -90.0 xyz
      dof rx ry rz
   end
   begin
      id 25
      name LeftForeArm
      direction 1.000000 0.000000 0.000000
      length 10.175898
      axis 0.0 0.0 -90.0 xyz
      dof ry rz rx
   end
   begin
      id 26
      name LeftHand
      direction 1.000000 0.000000 0.000000
      length 0.000000
      axis 0.0 0.0 -90.0 xyz
      dof rx ry rz
   end
   begin
      id 27
      name LeftHand_dum1
      direction 1.000000 0.000000 0.000000
      length 3.937000
      axis 0.0 0.0 -90.0 xyz
   end
   begin
      id 28
      name LeftHand_dum2
      direction 0.000000 0.000000 0.000000
      length 0.000000
      axis 0.0 0.0 -90.0 xyz
   end
   begin
      id 29
      name LeftHandThumb1
      direction 0.000000 0.000000 1.000000
      length 3.937000
      axis 0.0 0.0 -90.0 xyz
      dof rx rz ry
   end
   begin
      id 30
      name Head
      direction 0.000000 1.000000 0.000000
      length 4.527550
      axis 0.0 0.0 0.0 xyz
      dof rx ry rz
   end
:hierarchy
   begin
      root RightUpLeg_dum LeftUpLeg_dum Spine_dum
      RightUpLeg_dum RightUpLeg
      LeftUpLeg_dum LeftUpLeg
      Spine_dum Spine
      RightUpLeg RightLeg
      RightLeg RightFoot
      RightFoot RightToeBase
      LeftUpLeg LeftLeg
      LeftLeg LeftFoot
      LeftFoot LeftToeBase
      Spine Spine_dum1 Spine_dum2 Spine_dum3
      Spine_dum1 RightShoulder
      Spine_dum2 LeftShoulder
      Spine_dum3 Head
      RightShoulder RightArm
      RightArm RightForeArm
      RightForeArm RightHand
      RightHand RightHand_dum1 RightHand_dum2
      RightHand_dum2 RightHandThumb1
      LeftShoulder LeftArm
      LeftArm LeftForeArm
      LeftForeArm LeftHand
      LeftHand LeftHand_dum1 LeftHand_dum2
      LeftHand_dum2 LeftHandThumb1
   end

# File created by Blade
# Date/Time:  Thu Jan 22 16:25:48 2015
# Frame Rate: 120.000 fps
#------------------------------------------------------
:FULLY-SPECIFIED
:DEGREES
71
root 2.293878 37.148124 6.100170 -2.418948 -2.847059 2.206482
RightUpLeg 11.079111 1.234449 -3.923212
RightLeg -4.372765 -0.000000 0.000000
RightFoot -12.764966 -12.919334 18.525489
RightToeBase 14.089441 -0.000000 -0.000000
LeftUpLeg 9.990524 1.355855 -1.485320
LeftLeg -2.109359 -0.000000 0.000000
LeftFoot -9.963053 12.158319 -15.445930
LeftToeBase 9.389433 -0.000000 -0.000000
Spine 3.836238 -3.298635 -2.098525
RightShoulder -3.299232 -9.491502 -23.242609
RightArm 7.077975 26.093615 34.250465
RightForeArm 10.885390 -0.000000 29.662512
RightHand 2.641540 0.000000 -3.593795
RightHandThumb1 -24.326973 -0.000000 -32.862282
LeftShoulder -23.252468 29.841260 14.043040
LeftArm 39.737784 -46.333262 -53.593639
LeftForeArm 39.174760 0.000000 16.379688
LeftHand -16.318378 -0.000000 -8.994823
LeftHandThumb1 -26.253704 0.000000 33.147579
Head -1.375314 13.422302 3.061707
72
root 2.317144 37.147888 6.106072 -2.457894 -2.873744 2.189401
RightUpLeg 11.070063 1.252835 -3.943121
RightLeg -4.267081 -0.000000 0.000000
RightFoot -12.816643 -12.889180 18.576746
RightToeBase 14.110724 -0.000000 -0.000000
LeftUpLeg 10.038590 1.336840 -1.511768
LeftLeg -2.103418 -0.000000 0.000000
LeftFoot -10.000003 12.204540 -15.432056
LeftToeBase 9.378721 -0.000000 -0.000000
Spine 3.915320 -3.269736 -2.079466
RightShoulder -3.272399 -9.682048 -23.097994
RightArm 7.113361 25.802080 34.471604
RightForeArm 10.990474 -0.000000 30.460037
RightHand 2.836076 -0.000000 -3.655606
RightHandThumb1 -24.326973 -0.000000 -32.862282
LeftShoulder -23.301975 29.952489 13.884504
LeftArm 39.556617 -46.038156 -53.620180
LeftForeArm 39.252617 -0.000000 17.087237
LeftHand -16.158056 0.000000 -9.108203
LeftHandThumb1 -26.253704 0.000000 33.147579
Head -1.282482 13.444758 3.028118
73
root 2.340743 37.148281 6.108683 -2.481139 -2.878169 2.184038
RightUpLeg 11.026550 1.227149 -3.976128
RightLeg -4.128603 -0.000000 0.000000
RightFoot -12.880403 -12.843355 18.622539
RightToeBase 14.069976 -0.000000 -0.000000
LeftUpLeg 10.055838 1.302092 -1.549222
LeftLeg -2.082659 -0.000000 0.000000
LeftFoot -10.034215 12.237842 -15.420499
LeftToeBase 9.371248 -0.000000 -0.000000
Spine 3.984553 -3.249476 -2.077498
RightShoulder -3.278865 -9.827608 -22.945406
RightArm 7.172622 25.478857 34.733823
RightForeArm 11.094468 -0.000000 31.271928
RightHand 2.965319 -0.000000 -3.746549
RightHandThumb1 -24.326973 -0.000000 -32.862282
LeftShoulder -23.347823 30.119047 13.710961
LeftArm 39.431655 -45.752079 -53.705620
LeftForeArm 39.127125 -0.000000 17.810972
LeftHand -16.005596 -0.000000 -8.991541
LeftHandThumb1 -26.253704 0.000000 33.147579
Head -1.208491 13.468780 3.020533
74
root 2.364329 37.148287 6.113160 -2.521780 -2.885561 2.175189
RightUpLeg 10.986727 1.149333 -4.008925
RightLeg -3.959277 -0.000000 0.000000
RightFoot -12.946141 -12.785161 18.615260
RightToeBase 14.062974 -0.000000 -0.000000
LeftUpLeg 10.096219 1.251279 -1.585252
LeftLeg -2.069036 -0.000000 0.000000
LeftFoot -10.062671 12.291704 -15.413162
LeftToeBase 9.345892 -0.000000 -0.000000
Spine 4.081019 -3.236783 -2.088996
RightShoulder -3.267253 -10.037095 -22.774378
RightArm 7.230637 25.184430 35.024523
RightForeArm 11.249330 -0.000000 32.144031
RightHand 3.218116 -0.000000 -3.793492
RightHandThumb1 -24.326973 -0.000000 -32.862282
LeftShoulder -23.439083 30.301063 13.534858
LeftArm 39.363994 -45.422134 -53.837507
LeftForeArm 39.043685 -0.000000 18.541671
LeftHand -15.856948 -0.000000 -9.007204
LeftHandThumb1 -26.253704 0.000000 33.147579
Head -1.134141 13.496841 3.057852
75
root 2.386584 37.148007 6.118379 -2.557305 -2.896540 2.150169
RightUpLeg 10.967178 1.150112 -4.013397
RightLeg -3.839899 -0.000000 0.000000
RightFoot -13.009794 -12.783301 18.648260
RightToeBase 14.101882 -0.000000 -0.000000
LeftUpLeg 10.139985 1.265137 -1.598400
LeftLeg -2.063356 -0.000000 0.000000
LeftFoot -10.087230 12.301591 -15.342648
LeftToeBase 9.369005 -0.000000 -0.000000
Spine 4.181011 -3.212312 -2.077745
RightShoulder -3.271157 -10.246388 -22.609523
RightArm 7.284917 24.857600 35.340858
RightForeArm 11.564380 -0.000000 33.062089
RightHand 3.494463 -0.000000 -3.754066
RightHandThumb1 -24.326973 -0.000000 -32.862282
LeftShoulder -23.475527 30.238480 13.476355
LeftArm 38.990076 -44.877863 -53.780283
LeftForeArm 38.814412 0.000000 19.324297
LeftHand -15.958433 -0.000000 -8.712974
LeftHandThumb1 -26.253704 0.000000 33.147579
Head -1.098757 13.481536 3.052316
76
root 2.410251 37.148604 6.123201 -2.587365 -2.901251 2.131387
RightUpLeg 10.930368 1.119034 -4.034228
RightLeg -3.695337 -0.000000 0.000000
RightFoot -13.064684 -12.740640 18.671169
RightToeBase 14.122467 -0.000000 -0.000000
LeftUpLeg 10.174117 1.244239 -1.621477
LeftLeg -2.055081 -0.000000 0.000000
LeftFoot -10.114008 12.328736 -15.326276
LeftToeBase 9.391388 -0.000000 -0.000000
Spine 4.270579 -3.203517 -2.071933
RightShoulder -3.271228 -10.482960 -22.419012
RightArm 7.383110 24.552459 35.664113
RightForeArm 11.776423 -0.000000 33.984440
RightHand 3.767985 -0.000000 -3.869319
RightHandThumb1 -24.326973 -0.000000 -32.862282
LeftShoulder -23.597040 30.466174 13.234551
LeftArm 38.980392 -44.564219 -53.988463
LeftForeArm 38.764896 -0.000000 20.145668
LeftHand -15.776760 -0.000000 -8.631691
LeftHandThumb1 -26.253704 0.000000 33.147579
Head -1.037987 13.511472 3.070383
77
root 2.435311 37.149120 6.127215 -2.623965 -2.935195 2.108539
RightUpLeg 10.885360 1.120687 -4.052156
RightLeg -3.533258 -0.000000 0.000000
RightFoot -13.133436 -12.692789 18.717176
RightToeBase 14.146635 -0.000000 -0.000000
LeftUpLeg 10.219525 1.240861 -1.640797
LeftLeg -2.053388 -0.000000 0.000000
LeftFoot -10.128412 12.356435 -15.292852
LeftToeBase 9.350558 -0.000000 -0.000000
Spine 4.365755 -3.183997 -2.038560
RightShoulder -3.255357 -10.730117 -22.268148
RightArm 7.479182 24.299081 36.065381
RightForeArm 11.978836 -0.000000 35.027209
RightHand 3.893132 -0.000000 -3.894990
RightHandThumb1 -24.326973 -0.000000 -32.862282
LeftShoulder -23.671043 30.520855 13.040038
LeftArm 38.755583 -44.145540 -54.042188
LeftForeArm 38.777242 -0.000000 20.944925
LeftHand -15.687382 -0.000000 -8.577950
LeftHandThumb1 -26.253704 0.000000 33.147579
Head -0.959192 13.566992 3.013856
78
root 2.462637 37.149245 6.131827 -2.660521 -2.919251 2.099432
RightUpLeg 10.856500 1.105503 -4.083105
RightLeg -3.384822 -0.000000 0.000000
RightFoot -13.203952 -12.683870 18.745596
RightToeBase 14.141970 -0.000000 -0.000000
LeftUpLeg 10.250667 1.189997 -1.681324
LeftLeg -2.031300 -0.000000 0.000000
LeftFoot -10.166247 12.390031 -15.272309
LeftToeBase 9.365957 -0.000000 -0.000000
Spine 4.476901 -3.159316 -2.038404
RightShoulder -3.304822 -10.974441 -22.077385
RightArm 7.600775 23.953483 36.464451
RightForeArm 12.201658 0.000000 36.005294
RightHand 4.129370 0.000000 -4.097819
RightHandThumb1 -24.326973 -0.000000 -32.862282
LeftShoulder -23.748842 30.611062 12.854261
LeftArm 38.635962 -43.698737 -54.191086
LeftForeArm 38.716606 -0.000000 21.802130
LeftHand -15.693795 -0.000000 -8.468467
LeftHandThumb1 -26.253704 0.000000 33.147579
Head -0.935367 13.522992 3.003504
79
root 2.487123 37.149238 6.141761 -2.694932 -2.934530 2.078596
RightUpLeg 10.822315 1.085293 -4.103829
RightLeg -3.225015 -0.000000 0.000000
RightFoot -13.263631 -12.638182 18.791512
RightToeBase 14.113970 -0.000000 -0.000000
LeftUpLeg 10.308327 1.171453 -1.704924
LeftLeg -2.044647 -0.000000 0.000000
LeftFoot -10.189079 12.426989 -15.252843
LeftToeBase 9.360777 -0.000000 -0.000000
Spine 4.564360 -3.131421 -2.025867
RightShoulder -3.328154 -11.286932 -21.880465
RightArm 7.759036 23.571679 36.866781
RightForeArm 12.642297 -0.000000 37.017516
RightHand 4.432440 -0.000000 -4.185142
RightHandThumb1 -24.326973 -0.000000 -32.862282
LeftShoulder -23.870116 30.752664 12.603829
LeftArm 38.530348 -43.260444 -54.316602
LeftForeArm 38.567388 -0.000000 22.660488
LeftHand -15.504714 0.000000 -8.324812
LeftHandThumb1 -26.253704 0.000000 33.147579
Head -0.859839 13.559197 2.987502
